<?xml version="1.0" encoding="utf-8"?>
<!-- Generator: Adobe Illustrator 17.1.0, SVG Export Plug-In . SVG Version: 6.00 Build 0)  -->
<!DOCTYPE svg PUBLIC "-//W3C//DTD SVG 1.1//EN" "http://www.w3.org/Graphics/SVG/1.1/DTD/svg11.dtd">
<svg version="1.1" id="Layer_1" xmlns="http://www.w3.org/2000/svg" xmlns:xlink="http://www.w3.org/1999/xlink" x="0px" y="0px"
	 viewBox="0 0 8 8" enable-background="new 0 0 8 8" xml:space="preserve">
<path fill="#FFFFFF" d="M0.8,0C0.3,0,0,0.3,0,0.8v5.5C0,6.7,0.3,7,0.8,7h6.5C7.7,7,8,6.7,8,6.2V0.8C8,0.3,7.7,0,7.2,0H0.8z M1,1h1v1
	H1V1z M3,1h4v1H3V1z M1,3h1v1H1V3z M3,3h4v1H3V3z M1,5h1v1H1V5z M3,5h4v1H3V5z"/>
</svg>
