<?xml version="1.0" encoding="utf-8"?>
<!-- Generator: Adobe Illustrator 16.0.4, SVG Export Plug-In . SVG Version: 6.00 Build 0)  -->
<!DOCTYPE svg PUBLIC "-//W3C//DTD SVG 1.1//EN" "http://www.w3.org/Graphics/SVG/1.1/DTD/svg11.dtd">
<svg version="1.1" id="Layer_1" xmlns="http://www.w3.org/2000/svg" xmlns:xlink="http://www.w3.org/1999/xlink" x="0px" y="0px"
	 width="250px" height="200px" viewBox="-10.5 -3.5 250 200" enable-background="new -10.5 -3.5 250 200" xml:space="preserve">
<g>
	
		<linearGradient id="SVGID_1_" gradientUnits="userSpaceOnUse" x1="863.0186" y1="-1255.5073" x2="863.0186" y2="-1136.188" gradientTransform="matrix(1 0 0 -1 -746 -1121)">
		<stop  offset="0" style="stop-color:#D14427"/>
		<stop  offset="1" style="stop-color:#E55225"/>
	</linearGradient>
	<path fill="url(#SVGID_1_)" d="M168.173,74.848c0,28.251-22.901,51.157-51.155,51.157c-28.252,0-51.155-22.905-51.155-51.157
		c0-28.252,22.902-51.155,51.155-51.155C145.271,23.693,168.173,46.597,168.173,74.848z M176.678,74.848
		c0,32.947-26.713,59.66-59.66,59.66c-32.947,0-59.66-26.713-59.66-59.66c0-32.947,26.713-59.66,59.66-59.66
		C149.965,15.188,176.678,41.9,176.678,74.848z M171.756,74.848c0-30.229-24.51-54.736-54.738-54.736
		c-30.227,0-54.738,24.508-54.738,54.736s24.512,54.736,54.738,54.736C147.246,129.584,171.756,105.076,171.756,74.848z"/>
	<g>
		<g>
			<g>
				<g>
					<g>
						<g>
							<g>
								<defs>
									<path id="SVGID_2_" d="M168.374,74.707c0,28.316-23.036,51.354-51.356,51.354c-28.313,0-51.348-23.039-51.348-51.354
										c0-28.313,23.036-51.348,51.348-51.348C145.338,23.358,168.374,46.394,168.374,74.707z"/>
								</defs>
								<clipPath id="SVGID_3_">
									<use xlink:href="#SVGID_2_"  overflow="visible"/>
								</clipPath>
								<g clip-path="url(#SVGID_3_)">
									<path fill="#D5D7D8" d="M137.982,151.041c-1.801-8.285-12.262-27.039-16.229-34.969c-3.965-7.93-7.939-19.11-6.129-26.322
										c0.327-1.312-3.436-11.307-2.354-12.014c8.416-5.49,10.632,0.598,14.001-1.863c1.737-1.273,4.09,1.047,4.692-1.059
										c2.158-7.568-3.006-20.76-8.769-26.527c-1.885-1.879-4.772-3.059-8.03-3.686c-1.254-1.713-3.275-3.361-6.138-4.879
										c-3.188-1.697-10.121-3.938-13.717-4.535c-2.492-0.41-3.055,0.287-4.119,0.461c0.992,0.088,5.699,2.414,6.615,2.549
										c-0.916,0.619-3.607-0.029-5.324,0.742c-0.865,0.391-1.512,1.877-1.506,2.58c4.91-0.496,12.574-0.016,17.1,2
										c-3.602,0.41-9.08,0.867-11.436,2.105c-6.848,3.609-9.873,12.035-8.07,22.133c1.804,10.075,9.738,46.849,12.262,59.129
										c2.525,12.263-5.408,20.189-10.455,22.354l5.408,0.363l-1.801,3.967c6.484,0.719,13.695-1.441,13.695-1.441
										c-1.438,3.965-11.176,5.412-11.176,5.412s4.691,1.438,12.258-1.447c7.575-2.883,12.263-4.688,12.263-4.688l3.604,9.373
										l6.854-6.846l2.885,7.211C134.375,161.143,139.785,159.336,137.982,151.041z"/>
									<path fill="#FFFFFF" d="M140.16,149.359c-1.795-8.289-12.256-27.043-16.227-34.977c-3.97-7.935-7.935-19.112-6.129-26.321
										c0.334-1.309,0.34-6.668,1.428-7.379c8.41-5.494,7.812-0.184,11.186-2.645c1.74-1.27,3.133-2.805,3.738-4.912
										c2.164-7.572-3.006-20.76-8.773-26.529c-1.879-1.879-4.768-3.062-8.025-3.686c-1.252-1.717-3.271-3.361-6.13-4.881
										c-5.391-2.863-12.074-4.006-18.266-2.883c0.99,0.09,3.256,2.137,4.168,2.273c-1.381,0.936-5.053,0.816-5.029,2.896
										c4.916-0.492,10.303,0.285,14.834,2.297c-3.602,0.41-6.955,1.299-9.311,2.543c-6.854,3.602-8.656,10.812-6.854,20.914
										c1.807,10.096,9.742,46.87,12.256,59.127c2.527,12.258-5.402,20.188-10.449,22.352l5.408,0.359l-1.801,3.973
										c6.484,0.719,13.695-1.441,13.695-1.441c-1.438,3.972-11.176,5.406-11.176,5.406s4.686,1.441,12.258-1.445
										c7.578-2.883,12.269-4.686,12.269-4.686l3.602,9.373l6.854-6.852l2.89,7.213
										C136.564,159.455,141.969,157.65,140.16,149.359z"/>
									<path fill="#2D4F8E" d="M98.711,66.574c0-2.092,1.693-3.787,3.789-3.787c2.09,0,3.785,1.695,3.785,3.787
										c0,2.094-1.695,3.787-3.785,3.787C100.404,70.361,98.711,68.668,98.711,66.574z"/>
									<path fill="#FFFFFF" d="M103.197,65.312c0-0.545,0.441-0.984,0.98-0.984c0.543,0,0.984,0.439,0.984,0.984
										c0,0.543-0.441,0.984-0.984,0.984C103.639,66.297,103.197,65.855,103.197,65.312z"/>
									<path fill="#2D4F8E" d="M124.557,64.328c0-1.793,1.461-3.25,3.252-3.25c1.801,0,3.256,1.457,3.256,3.25
										c0,1.801-1.455,3.258-3.256,3.258C126.018,67.586,124.557,66.129,124.557,64.328z"/>
									<path fill="#FFFFFF" d="M128.414,63.246c0-0.463,0.379-0.842,0.838-0.842c0.477,0,0.844,0.379,0.844,0.842
										c0,0.469-0.367,0.842-0.844,0.842C128.793,64.088,128.414,63.715,128.414,63.246z"/>
									
										<linearGradient id="SVGID_4_" gradientUnits="userSpaceOnUse" x1="841.0088" y1="-1177.8633" x2="849.5762" y2="-1177.8633" gradientTransform="matrix(1 0 0 -1 -746 -1121)">
										<stop  offset="0.0056" style="stop-color:#6176B9"/>
										<stop  offset="0.691" style="stop-color:#394A9F"/>
									</linearGradient>
									<path fill="url(#SVGID_4_)" d="M103.576,55.601c0,0-2.854-1.291-5.629,0.453c-2.77,1.742-2.668,3.523-2.668,3.523
										s-1.473-3.283,2.453-4.891C101.662,53.076,103.576,55.601,103.576,55.601z"/>
									
										<linearGradient id="SVGID_5_" gradientUnits="userSpaceOnUse" x1="867.9629" y1="-1175.2539" x2="875.7676" y2="-1175.2539" gradientTransform="matrix(1 0 0 -1 -746 -1121)">
										<stop  offset="0.0056" style="stop-color:#6176B9"/>
										<stop  offset="0.691" style="stop-color:#394A9F"/>
									</linearGradient>
									<path fill="url(#SVGID_5_)" d="M129.768,55.341c0,0-2.051-1.172-3.643-1.152c-3.268,0.043-4.162,1.488-4.162,1.488
										s0.549-3.445,4.734-2.754C128.963,53.3,129.768,55.341,129.768,55.341z"/>
								</g>
							</g>
						</g>
					</g>
				</g>
			</g>
		</g>
		<path fill="#FDD20A" d="M114.09,81.178c0.379-2.291,6.299-6.625,10.49-6.887c4.201-0.264,5.51-0.205,9.01-1.043
			c3.508-0.838,12.535-3.088,15.033-4.242c2.504-1.156,13.102,0.572,5.631,4.738c-3.234,1.809-11.945,5.131-18.172,6.988
			c-6.219,1.861-9.99-1.777-12.059,1.281c-1.646,2.432-0.334,5.762,7.098,6.453c10.037,0.93,19.66-4.52,20.719-1.625
			c1.064,2.895-8.625,6.508-14.527,6.623c-5.891,0.111-17.774-3.896-19.553-5.137C115.975,87.088,113.596,84.197,114.09,81.178z"/>
	</g>
</g>
<g>
	<g>
		<path fill="#4C4C4C" d="M12.254,176.457v-24.598h8.914c8.487,0,12.352,6.236,12.352,12.033c0,6.254-3.819,12.562-12.352,12.562
			L12.254,176.457L12.254,176.457z M15.088,173.623h6.08c6.575,0,9.518-4.904,9.518-9.766c0-4.465-2.979-9.271-9.518-9.271h-6.08
			V173.623z"/>
	</g>
	<g>
		<path fill="#4C4C4C" d="M44.745,176.74c-4.554,0-7.497-3.137-7.497-7.992v-9.551h2.657v9.516c0,3.496,2.034,5.584,5.442,5.584
			c3.195-0.035,5.513-2.488,5.513-5.832v-9.268h2.657v17.26h-2.414l-0.152-3.002l-0.412,0.518
			C49.107,175.773,47.158,176.705,44.745,176.74z"/>
	</g>
	<g>
		<path fill="#4C4C4C" d="M66.476,176.775c-4.49,0-9.02-2.771-9.02-8.949c0-5.354,3.625-8.949,9.02-8.949
			c2.361,0,4.436,0.842,6.168,2.502l-1.67,1.734c-1.175-1.096-2.781-1.721-4.427-1.721c-3.768,0-6.399,2.646-6.399,6.434
			c0,4.445,3.196,6.436,6.364,6.436c1.782,0,3.4-0.636,4.573-1.791l1.736,1.736C71.074,175.912,68.94,176.775,66.476,176.775z"/>
	</g>
	<g>
		<polygon fill="#4C4C4C" points="87.373,176.457 78.938,168.021 78.938,176.457 76.316,176.457 76.316,151.895 78.938,151.895 
			78.938,166.752 86.311,159.197 89.748,159.197 81.614,167.331 90.741,176.422 90.741,176.457 		"/>
	</g>
	<g>
		<path fill="#4C4C4C" d="M94.007,176.457v-24.598h8.913c8.487,0,12.354,6.236,12.354,12.033c0,6.254-3.815,12.562-12.354,12.562
			L94.007,176.457L94.007,176.457z M96.84,173.623h6.08c6.575,0,9.519-4.904,9.519-9.766c0-4.465-2.979-9.271-9.519-9.271h-6.08
			V173.623z"/>
	</g>
	<g>
		<path fill="#4C4C4C" d="M126.496,176.74c-4.555,0-7.496-3.137-7.496-7.992v-9.551h2.657v9.516c0,3.496,2.034,5.584,5.44,5.584
			c3.191-0.035,5.514-2.488,5.514-5.832v-9.268h2.656v17.26h-2.416l-0.149-3.002l-0.412,0.518
			C130.857,175.773,128.909,176.705,126.496,176.74z"/>
	</g>
	<g>
		<path fill="#4C4C4C" d="M148.229,176.775c-4.49,0-9.021-2.771-9.021-8.949c0-5.354,3.625-8.949,9.021-8.949
			c2.36,0,4.438,0.842,6.168,2.502l-1.67,1.734c-1.176-1.096-2.781-1.721-4.428-1.721c-3.768,0-6.398,2.646-6.398,6.434
			c0,4.445,3.197,6.436,6.363,6.436c1.782,0,3.4-0.636,4.573-1.791l1.685,1.688l-0.088,0.09l0.049,0.049
			C152.753,175.941,150.65,176.775,148.229,176.775z"/>
	</g>
	<g>
		<polygon fill="#4C4C4C" points="169.125,176.457 160.689,168.021 160.689,176.457 158.068,176.457 158.068,151.895 
			160.689,151.895 160.689,166.752 168.062,159.197 171.501,159.197 163.367,167.331 172.493,176.422 172.493,176.457 		"/>
	</g>
	<g>
		<path fill="#4C4C4C" d="M186.408,176.918c-9.457,0-12.812-6.75-12.812-12.529c-0.019-3.765,1.256-7.125,3.584-9.467
			c2.293-2.305,5.473-3.523,9.193-3.523c3.367,0,6.537,1.279,8.938,3.604l-1.604,1.869c-1.888-1.763-4.683-2.853-7.329-2.853
			c-6.854,0-9.979,5.375-9.979,10.369c0,4.91,3.104,9.873,10.049,9.873c2.529,0,4.886-0.867,6.811-2.514l0.088-0.074v-6.062h-7.729
			v-2.479h10.277v9.646C193.245,175.574,190.152,176.918,186.408,176.918z"/>
	</g>
	<g>
		<path fill="#4C4C4C" d="M208.143,176.775c-5.187,0-8.949-3.748-8.949-8.914c0-5.246,3.768-9.055,8.949-9.055
			c5.289,0,8.983,3.723,8.983,9.055C217.126,173.027,213.348,176.775,208.143,176.775z M208.177,161.215
			c-3.726,0-6.327,2.734-6.327,6.646c0,3.729,2.646,6.436,6.293,6.436c3.709,0,6.326-2.646,6.362-6.434
			C214.505,164.01,211.844,161.215,208.177,161.215z"/>
	</g>
</g>
<g>
	<path fill="#65BC46" d="M118.633,112.475c0,0-14.1-7.521-14.33-4.47c-0.238,3.056,0,15.509,1.643,16.451
		c1.646,0.938,13.395-6.108,13.395-6.108L118.633,112.475z"/>
	<path fill="#65BC46" d="M124.035,112.001c0,0,9.635-7.285,11.754-6.815c2.111,0.479,2.582,15.51,0.701,16.226
		c-1.881,0.694-12.908-3.815-12.908-3.815L124.035,112.001z"/>
	<path fill="#43A244" d="M115.219,113.271c0,4.931-0.709,7.049,1.41,7.517c2.112,0.473,6.105,0,7.518-0.938
		c1.41-0.938,0.232-7.281-0.233-8.465C123.438,110.214,115.219,111.157,115.219,113.271z"/>
	<path fill="#65BC46" d="M116.115,112.175c0,4.933-0.707,7.05,1.41,7.519c2.107,0.476,6.104,0,7.518-0.938
		c1.41-0.941,0.232-7.279-0.238-8.466C124.334,109.118,116.115,110.062,116.115,112.175z"/>
</g>
</svg>
