<?xml version="1.0" encoding="utf-8"?>
<!-- Generator: Adobe Illustrator 17.1.0, SVG Export Plug-In . SVG Version: 6.00 Build 0)  -->
<!DOCTYPE svg PUBLIC "-//W3C//DTD SVG 1.1//EN" "http://www.w3.org/Graphics/SVG/1.1/DTD/svg11.dtd">
<svg version="1.1" id="Layer_1" xmlns="http://www.w3.org/2000/svg" xmlns:xlink="http://www.w3.org/1999/xlink" x="0px" y="0px"
	 viewBox="0 0 612 792" enable-background="new 0 0 612 792" xml:space="preserve">
<title>DVD logo</title>
<path fill="#9F4115" d="M225.1,229.2c0,0-5.6,28.5-3.9,30.2c0.5-1.8-19.3-28.9-19.3-28.9s-4.2-5.7-17.5-24.4l-17.9,1.2l-43.6,2.9
	l-32.9,2.2l4.6,18.1l24.7-1.7l5.8-0.4c15.9-1.1,29.3,6.6,33.1,21.4c4.1,16.2-6.7,23.9-21.5,24.9l-5.5,0.4l-10.1-39.5l-24.8,1.7
	l14.7,57.6l35.1-2.4c26.4-1.8,43.6-21.4,37.9-44.6c-1.1-4.3-5.9-14.9-10.7-20.9c-0.1-0.2-0.3-0.4-0.6-0.9c-0.2-0.2-0.7-1.1-0.4-1.3
	c0.1-0.2,0.9,0.4,0.9,0.5c0,0,0.5,0.7,1,1.3l58.4,79.7l20.3-86.5l24-1.8l5.8-0.4c15.9-1.1,29.4,6.6,33.2,21.4
	c4.1,16.2-6.8,24-21.6,25l-5.6,0.4L278.9,225l-24.8,1.7l14.7,57.8l35.1-2.4c26.4-1.8,43.8-21.4,37.8-44.6
	c-5.9-23.3-32.3-39.8-58.9-38l-23.3,1.6l-29.1,2C225.9,224.9,225.1,229.2,225.1,229.2L225.1,229.2z"/>
<path fill="#9F4115" d="M233.7,306.7c-66.8,4.5-116.7,18-111.3,30.3c5.4,12.2,64,18.4,130.8,13.9c66.9-4.5,116.8-18,111.4-30.3
	S300.7,302.1,233.7,306.7z M242.7,336.8c-15.3,1-29.1-1.5-30.9-5.6c-1.8-4.1,9-8.3,24.4-9.3c15.2-1,29,1.5,30.9,5.6
	C268.8,331.7,257.9,335.8,242.7,336.8z"/>
<polygon fill="#9F4115" points="360.1,343.5 359.4,341.9 352,342.4 352.4,344 355.5,343.8 359.7,356.1 361.2,356 357.1,343.7 "/>
<polygon fill="#9F4115" points="376.5,355 370.4,341.2 369.2,341.2 369.4,351 363.4,341.6 362.2,341.7 364.9,355.8 366.2,355.7 
	364.2,344.8 370.7,355.4 370.3,344.4 375.4,355.1 "/>
<text transform="matrix(1.129 -7.625198e-02 0.4046 0.9145 172.9098 458.209)" fill="#9F4115" font-family="'Ubuntu'" font-size="122.5876">Pila!</text>
</svg>
