<?xml version="1.0" encoding="utf-8"?>
<!-- Generator: Adobe Illustrator 17.1.0, SVG Export Plug-In . SVG Version: 6.00 Build 0)  -->
<!DOCTYPE svg PUBLIC "-//W3C//DTD SVG 1.1//EN" "http://www.w3.org/Graphics/SVG/1.1/DTD/svg11.dtd">
<svg version="1.1" id="Layer_1" xmlns="http://www.w3.org/2000/svg" xmlns:xlink="http://www.w3.org/1999/xlink" x="0px" y="0px"
	 viewBox="0 0 612 792" enable-background="new 0 0 612 792" xml:space="preserve">
<title>DVD logo</title>
<path fill="#9F4115" d="M346.5,299.4c0,0-40.1,49.3-38,52.5c2.8-3.1-14.4-53-14.4-53s-3.6-10.5-14.9-44.8h-40.8h-99.1H64.6
	l-7.5,32.3h56.2h13.3c36.2,0,58.3,15,52.1,41.5c-6.7,28.9-38.2,41.2-71.9,41.2H94.4l16.2-70.5H54.3L30.5,401.4h79.8
	c60.1,0,117.1-32.3,127.3-73.7c1.8-7.6,1.5-26.8-3.1-38c0-0.3-0.3-0.8-0.5-1.6c-0.3-0.3-0.5-2.1,0.5-2.4c0.5-0.3,1.5,0.8,1.5,1
	c0,0,0.5,1.3,1,2.4L288,435.8l129.4-149.3l54.7-0.3h13.3c36.2,0,58.5,15,52.4,41.5c-6.7,28.9-38.5,41.2-72.1,41.2h-12.8l16.4-70.5
	H413l-23.9,103.1h79.8c60.1,0,117.6-32.3,127.1-73.7c9.8-41.5-32.4-73.7-92.9-73.7h-52.9H384C352.4,292,346.5,299.4,346.5,299.4
	L346.5,299.4z"/>
<path fill="#9F4115" d="M289.7,436.3c-152,0-275.2,17.8-275.2,39.9c0,22,123.2,39.9,275.2,39.9c152.2,0,275.5-17.8,275.5-39.9
	C565.2,454.1,442,436.3,289.7,436.3z M280,490.3c-34.9,0-62.9-6-62.9-13.4s28-13.4,62.9-13.4c34.6,0,62.7,6,62.7,13.4
	C342.7,484.3,314.6,490.3,280,490.3z"/>
<polygon fill="#9F4115" points="532.9,515.9 532.9,513 516.1,513 515.4,515.9 522.4,515.9 519.6,538 523.1,538 525.9,515.9 "/>
<polygon fill="#9F4115" points="557.9,538 557.9,513 555.2,513 546.1,530.2 542,513 539.2,513 531.4,538 534.3,538 540.5,518.7 
	544.7,538 554.5,518.7 555.2,538 "/>
<text transform="matrix(1.5541 0 0 1 7.4691 694.9003)" fill="#9F4115" font-family="'Ubuntu'" font-size="202.5">Pila!</text>
</svg>
