<?xml version="1.0" encoding="utf-8"?>
<!-- Generator: Adobe Illustrator 17.1.0, SVG Export Plug-In . SVG Version: 6.00 Build 0)  -->
<!DOCTYPE svg PUBLIC "-//W3C//DTD SVG 1.1//EN" "http://www.w3.org/Graphics/SVG/1.1/DTD/svg11.dtd">
<svg version="1.1" id="Layer_1" xmlns="http://www.w3.org/2000/svg" xmlns:xlink="http://www.w3.org/1999/xlink" x="0px" y="0px"
	 viewBox="0 0 612 792" enable-background="new 0 0 612 792" xml:space="preserve">
<title>DVD logo</title>
<path fill="#9F4115" d="M232.5,226.4c0,0-7.5,28-5.9,29.9c0.6-1.8-17.3-30.1-17.3-30.1s-3.8-6-15.8-25.5h-18h-43.7H98.9l3.4,18.4
	H127h5.9c16,0,28.8,8.5,31.6,23.6c3,16.4-8.3,23.4-23.2,23.4h-5.5l-7.5-40.1h-24.8l10.8,58.5h35.2c26.5,0,44.9-18.4,40.9-41.9
	c-0.8-4.3-4.9-15.2-9.2-21.6c-0.1-0.2-0.3-0.5-0.6-0.9c-0.2-0.2-0.7-1.2-0.3-1.4c0.2-0.2,0.8,0.5,0.9,0.6c0,0,0.5,0.7,0.9,1.4
	L235,304l26.1-84.9l24-0.2h5.9c16,0,28.9,8.5,31.7,23.6c3,16.4-8.4,23.4-23.2,23.4h-5.6l-7.4-40.1h-24.8l10.8,58.6h35.2
	c26.5,0,45.1-18.4,40.8-41.9c-4.3-23.6-29.5-41.9-56.2-41.9h-23.3h-29.2C233.6,222.2,232.5,226.4,232.5,226.4L232.5,226.4z"/>
<path fill="#9F4115" d="M235.8,304.3c-67,0-117.6,10.1-113,22.7c4.6,12.5,62.6,22.7,129.6,22.7c67.1,0,117.7-10.1,113.2-22.7
	C360.9,314.4,302.9,304.3,235.8,304.3z M242.7,335c-15.4,0-29-3.4-30.5-7.6c-1.5-4.2,9.6-7.6,25-7.6c15.3,0,28.9,3.4,30.4,7.6
	C269.1,331.6,258,335,242.7,335z"/>
<polygon fill="#9F4115" points="359.5,349.6 358.9,347.9 351.5,347.9 351.8,349.6 354.9,349.6 358.2,362.1 359.7,362.1 356.4,349.6 
	"/>
<polygon fill="#9F4115" points="375.1,362.1 369.9,347.9 368.7,347.9 368.3,357.7 362.9,347.9 361.7,347.9 363.4,362.1 364.7,362.1 
	363.4,351.2 369.3,362.1 369.6,351.2 373.9,362.1 "/>
<text transform="matrix(1.1315 0 0.342 0.9397 164.9562 451.3994)" fill="#9F4115" font-family="'Ubuntu'" font-size="122.5876">Pila!</text>
</svg>
