<?xml version="1.0" encoding="utf-8"?>
<!-- Generator: Adobe Illustrator 17.1.0, SVG Export Plug-In . SVG Version: 6.00 Build 0)  -->
<!DOCTYPE svg PUBLIC "-//W3C//DTD SVG 1.1//EN" "http://www.w3.org/Graphics/SVG/1.1/DTD/svg11.dtd">
<svg version="1.1" xmlns="http://www.w3.org/2000/svg" xmlns:xlink="http://www.w3.org/1999/xlink" x="0px" y="0px"
	 viewBox="0 0 612 792" enable-background="new 0 0 612 792" xml:space="preserve">
<g id="Layer_1">
	<title>DVD logo</title>
	<path fill="#9F4115" d="M151.9,502.2c0,0-17.1,26.2-16.2,28c1.2-1.7-6.1-28.2-6.1-28.2s-1.5-5.6-6.3-23.9h-17.4H63.6H31.8
		l-3.2,17.2h23.9h5.7c15.4,0,24.8,8,22.2,22.1c-2.9,15.4-16.3,21.9-30.6,21.9h-5.3l6.9-37.5h-24l-10.1,54.7h34
		c25.6,0,49.9-17.2,54.2-39.2c0.8-4,0.6-14.3-1.3-20.2c0-0.2-0.1-0.4-0.2-0.9c-0.1-0.2-0.2-1.1,0.2-1.3c0.2-0.2,0.6,0.4,0.6,0.5
		c0,0,0.2,0.7,0.4,1.3l21.7,78.1l55.1-79.5l23.3-0.2h5.7c15.4,0,24.9,8,22.3,22.1c-2.9,15.4-16.4,21.9-30.7,21.9h-5.5l7-37.5h-24
		L170,556.6h34c25.6,0,50.1-17.2,54.1-39.2c4.2-22.1-13.8-39.2-39.6-39.2h-22.5h-28.2C154.4,498.3,151.9,502.2,151.9,502.2
		L151.9,502.2z"/>
	<path fill="#9F4115" d="M127.7,575.1c-64.7,0-117.2,9.5-117.2,21.2c0,11.7,52.5,21.2,117.2,21.2c64.8,0,117.4-9.5,117.4-21.2
		C245.1,584.6,192.6,575.1,127.7,575.1z M123.6,603.9c-14.9,0-26.8-3.2-26.8-7.1s11.9-7.1,26.8-7.1c14.7,0,26.7,3.2,26.7,7.1
		S138.3,603.9,123.6,603.9z"/>
	<polygon fill="#9F4115" points="231.3,617.5 231.3,615.9 224.1,615.9 223.8,617.5 226.8,617.5 225.6,629.3 227.1,629.3 
		228.3,617.5 	"/>
	<polygon fill="#9F4115" points="241.9,629.3 241.9,615.9 240.8,615.9 236.9,625.1 235.2,615.9 234,615.9 230.7,629.3 231.9,629.3 
		234.5,619 236.3,629.3 240.5,619 240.8,629.3 	"/>
	<text transform="matrix(1.2434 0 0 1 7.4707 712.793)" fill="#9F4115" font-family="'Ubuntu'" font-size="107.8179">Pila!</text>
</g>
<g id="Layer_2">
</g>
</svg>
