<?xml version="1.0" encoding="utf-8"?>
<!-- Generator: Adobe Illustrator 17.1.0, SVG Export Plug-In . SVG Version: 6.00 Build 0)  -->
<!DOCTYPE svg PUBLIC "-//W3C//DTD SVG 1.1//EN" "http://www.w3.org/Graphics/SVG/1.1/DTD/svg11.dtd">
<svg version="1.1" id="Layer_1" xmlns="http://www.w3.org/2000/svg" xmlns:xlink="http://www.w3.org/1999/xlink" x="0px" y="0px"
	 viewBox="0 0 8 8" enable-background="new 0 0 8 8" xml:space="preserve">
<path fill="#FFFFFF" d="M1,0v1c3.3,0,6,2.7,6,6h1C8,3.1,4.9,0,1,0z M1,2v1c2.2,0,4,1.8,4,4h1C6,4.2,3.8,2,1,2z M1,4v1
	c1.1,0,2,0.9,2,2h1C4,5.3,2.7,4,1,4z M1,6C0.4,6,0,6.4,0,7s0.4,1,1,1s1-0.4,1-1S1.5,6,1,6z"/>
</svg>
